# xmcd
#
# Track frame offsets:
#	150
#	2117
#	7192
#	22175
#	24625
#	26155
#	29650
#	31025
#	33120
#	45600
#	60662
#	70300
#	74125
#	75775
#	84967
#	103627
#	106620
#	112002
#	117162
#	122692
#	136075
#	145962
#	154817
#	167352
#	171422
#	181567
#	184387
#	189095
#	199132
#	206680
#	212840
#	223487
#	226162
#	230620
#	231400
#
# Disc length: 3364 seconds
#
# Revision: 1
# Processed by: cddbd v1.5.1PL0 Copyright (c) Steve Scherf et al.
# Submitted via: CDex 1.50Beta5
#
DISCID=e60d2223
DTITLE=佐久間レイ - べるのの日記 恋のリミックスだお
DYEAR=1900
DGENRE=
TTITLE0=絵日記
TTITLE1=ぱふっ
TTITLE2=ねぼけまなこ
TTITLE3=あいつ
TTITLE4=ぜんぜんちがう
TTITLE5=のんきな一日
TTITLE6=ほんとちがう
TTITLE7=おこらせるなお
TTITLE8=情緒不安定
TTITLE9=真夏のとおせんぼ
TTITLE10=ビボー
TTITLE11=チュウチュウ七五三
TTITLE12=誰に似たの?
TTITLE13=三つ子の魂100まで
TTITLE14=あそぼー
TTITLE15=あいつ
TTITLE16=あっつい
TTITLE17=ぱふっ
TTITLE18=ばびぶべぼ
TTITLE19=By the way
TTITLE20=不思議
TTITLE21=Kira Kira/いじめたくなる
TTITLE22=葛藤
TTITLE23=無の境地
TTITLE24=ロープ!
TTITLE25=気合いの歌
TTITLE26=笑おう
TTITLE27=アイ・ライク・ユア・スマイル
TTITLE28=これでいいんだお
TTITLE29=待っててマイ・ハート
TTITLE30=たったひとつのお願い
TTITLE31=あいつ
TTITLE32=ぱふっ
TTITLE33=もいちど
TTITLE34=グリン・ピース
EXTD=
EXTT0=
EXTT1=
EXTT2=
EXTT3=
EXTT4=
EXTT5=
EXTT6=
EXTT7=
EXTT8=
EXTT9=
EXTT10=
EXTT11=
EXTT12=
EXTT13=
EXTT14=
EXTT15=
EXTT16=
EXTT17=
EXTT18=
EXTT19=
EXTT20=
EXTT21=
EXTT22=
EXTT23=
EXTT24=
EXTT25=
EXTT26=
EXTT27=
EXTT28=
EXTT29=
EXTT30=
EXTT31=
EXTT32=
EXTT33=
EXTT34=
PLAYORDER=
